<!DOCTYPE svg PUBLIC "-//W3C//DTD SVG 1.1//EN" "http://www.w3.org/Graphics/SVG/1.1/DTD/svg11.dtd">
<!-- Uploaded to: SVG Repo, www.svgrepo.com, Transformed by: SVG Repo Mixer Tools -->
<svg width="800px" height="800px" viewBox="0 0 24 24" xmlns:rdf="http://www.w3.org/1999/02/22-rdf-syntax-ns#" xmlns="http://www.w3.org/2000/svg" version="1.1" xmlns:cc="http://creativecommons.org/ns#" xmlns:dc="http://purl.org/dc/elements/1.1/" fill="#000000">
<g id="SVGRepo_bgCarrier" stroke-width="0"/>
<g id="SVGRepo_tracerCarrier" stroke-linecap="round" stroke-linejoin="round"/>
<g id="SVGRepo_iconCarrier"> <g transform="translate(0 -1028.4)"> <path d="m-2e-7 1036 2e-7 8.4 12 8v-8.4z" fill="#555753"/> <path d="m24 1036v8.4l-12 8v-8.4z" fill="#888a85"/> <path d="m12 1028.4-12 7.6 12 8 12-8-12-7.6z" fill="#888a85"/> <path d="m8.5 1030.6v1.5c0 1.3 1.567 2.3 3.5 2.3s3.5-1 3.5-2.3v-1.5h-7z" fill="#555753"/> <path d="m8.5 1030.6v1.5c0 1.3 1.567 2.3 3.5 2.3v-3.8h-3.5z" fill="#555753"/> <path d="m16 9a3.5 3 0 1 1 -7 0 3.5 3 0 1 1 7 0z" transform="matrix(1 0 0 0.75 -.5 1023.9)" fill="#888a85"/> <path d="m15 1034.6v1.5c0 1.3 1.567 2.3 3.5 2.3s3.5-1 3.5-2.3v-1.5h-7z" fill="#555753"/> <path d="m15 1034.6v1.5c0 1.3 1.567 2.3 3.5 2.3v-3.8h-3.5z" fill="#555753"/> <path d="m16 9a3.5 3 0 1 1 -7 0 3.5 3 0 1 1 7 0z" transform="matrix(1 0 0 0.75 6 1027.9)" fill="#888a85"/> <path d="m2 1034.1v1.5c0 1.3 1.567 2.3 3.5 2.3s3.5-1 3.5-2.3v-1.5h-7z" fill="#555753"/> <path d="m2 1034.1v1.5c0 1.3 1.567 2.3 3.5 2.3v-3.8h-3.5z" fill="#555753"/> <path d="m16 9a3.5 3 0 1 1 -7 0 3.5 3 0 1 1 7 0z" transform="matrix(1 0 0 0.75 -7 1027.4)" fill="#888a85"/> <path d="m8.5 1038.1v1.5c0 1.3 1.567 2.3 3.5 2.3s3.5-1 3.5-2.3v-1.5h-7z" fill="#555753"/> <path d="m8.5 1038.1v1.5c0 1.3 1.567 2.3 3.5 2.3v-3.8h-3.5z" fill="#555753"/> <path d="m16 9a3.5 3 0 1 1 -7 0 3.5 3 0 1 1 7 0z" transform="matrix(1 0 0 0.75 -.5 1031.4)" fill="#888a85"/> </g> </g>
</svg>