<svg width="800" height="800" viewBox="0 0 800 800" fill="none" xmlns="http://www.w3.org/2000/svg">
<g clip-path="url(#clip0_58_232)">
<path d="M66.6667 166.668C29.8467 166.668 1.52588e-05 196.668 1.52588e-05 233.335V700.001C1.52588e-05 736.668 29.8477 766.668 66.6667 766.668H733.333C770.167 766.668 800 736.668 800 700.001V233.335C800 196.668 770.167 166.668 733.333 166.668H66.6667Z" fill="#555753"/>
<path d="M100 33.332C63.18 33.332 33.3333 63.332 33.3333 99.9987V566.665C33.3333 603.332 63.18 633.332 100 633.332H466.667H633.333H700C736.833 633.332 766.667 603.332 766.667 566.665V266.665V166.665C766.667 129.999 736.833 99.9987 700 99.9987H633.333H466.667H433.333L333.333 33.332H100Z" fill="#555753"/>
<path d="M766.667 466.665V199.999C766.667 163.332 736.833 133.332 700 133.332H333.333H166.667H100C63.18 133.332 33.3333 163.332 33.3333 199.999V466.665H766.667Z" fill="#729FCF"/>
<path d="M66.6667 166.668C29.8467 166.668 1.52588e-05 196.668 1.52588e-05 233.335V433.335V466.668V666.668C1.52588e-05 703.335 29.8477 733.335 66.6667 733.335H733.333C770.167 733.335 800 703.335 800 666.668V466.668V433.335V233.335C800 196.668 770.167 166.668 733.333 166.668H66.6667Z" fill="#888A85"/>
</g>
<g clip-path="url(#clip1_58_232)">
<path d="M153 452.506C153 316.356 263.362 206.003 399.496 206.003C535.637 206.003 646 316.357 646 452.506C646 588.636 535.637 698.997 399.496 698.997C263.362 698.997 153 588.636 153 452.506Z" fill="#E04F5F"/>
<path d="M534.105 410.973H264.895C260.945 410.973 257.742 414.177 257.742 418.127V486.874C257.742 490.825 260.946 494.027 264.895 494.027H534.105C538.055 494.027 541.258 490.824 541.258 486.874V418.127C541.258 414.177 538.054 410.973 534.105 410.973Z" fill="white"/>
</g>
<defs>
<clipPath id="clip0_58_232">
<rect width="800" height="800" fill="white"/>
</clipPath>
<clipPath id="clip1_58_232">
<rect width="493" height="493" fill="white" transform="translate(153 206)"/>
</clipPath>
</defs>
</svg>
